<svg xmlns="http://www.w3.org/2000/svg" width="100" height="100" viewBox="0 0 100 100">
  <path id="ic_avatar_profile" d="M100,50A50,50,0,1,0,16.229,86.833l-.047.042L17.8,88.242c.105.089.22.162.325.249.862.715,1.755,1.393,2.664,2.049.295.213.589.425.889.633q1.456,1,2.985,1.905c.222.131.445.258.669.385,1.115.635,2.253,1.233,3.418,1.782.085.04.173.076.258.116a49.55,49.55,0,0,0,12.093,3.827l.335.06c1.316.227,2.647.409,3.995.531.164.015.327.024.493.038,1.342.111,2.7.182,4.073.182s2.705-.071,4.04-.178c.169-.015.338-.024.507-.038q2-.183,3.96-.522c.113-.02.227-.04.34-.062a49.547,49.547,0,0,0,11.922-3.736c.138-.064.278-.124.416-.189q1.683-.791,3.293-1.7.4-.226.8-.46c.978-.576,1.94-1.178,2.875-1.818.336-.229.665-.471,1-.711.8-.575,1.582-1.167,2.344-1.787.169-.136.351-.255.516-.395l1.664-1.389-.049-.042A49.871,49.871,0,0,0,100,50ZM3.636,50A46.364,46.364,0,1,1,80.747,84.66a13.627,13.627,0,0,0-1.624-.976l-15.395-7.7a4.03,4.03,0,0,1-2.24-3.624V66.987c.356-.44.733-.938,1.122-1.485a37.051,37.051,0,0,0,4.756-9.315,6.6,6.6,0,0,0,3.791-5.98V43.762a6.615,6.615,0,0,0-1.613-4.307V30.969a14.665,14.665,0,0,0-3.424-10.662C62.771,16.482,57.347,14.545,50,14.545s-12.771,1.936-16.122,5.76a14.665,14.665,0,0,0-3.424,10.662v8.485a6.625,6.625,0,0,0-1.613,4.307v6.445a6.614,6.614,0,0,0,2.436,5.129A34.164,34.164,0,0,0,36.9,66.951v5.262a4.056,4.056,0,0,1-2.113,3.56L20.413,83.615a13.14,13.14,0,0,0-1.367.865A46.252,46.252,0,0,1,3.636,50ZM77.2,87.513c-.636.462-1.284.909-1.94,1.336-.3.2-.6.393-.909.584-.858.531-1.731,1.036-2.622,1.509-.2.1-.395.2-.593.3a46.33,46.33,0,0,1-6.342,2.684c-.076.025-.153.053-.231.078q-1.71.567-3.462,1l-.011,0c-1.178.291-2.371.533-3.571.731l-.1.018c-1.129.184-2.267.316-3.409.416-.2.018-.4.031-.607.045-1.129.085-2.264.14-3.4.14s-2.3-.056-3.445-.142c-.2-.015-.4-.027-.593-.045-1.153-.1-2.3-.238-3.436-.424l-.153-.027A46.191,46.191,0,0,1,35.3,93.96l-.215-.073q-1.715-.584-3.385-1.3l-.024-.011c-1.051-.453-2.082-.955-3.1-1.484-.133-.069-.267-.135-.4-.205-.929-.5-1.838-1.033-2.735-1.593q-.4-.251-.791-.507c-.825-.54-1.64-1.1-2.433-1.7-.082-.062-.16-.127-.242-.189l.175-.1,14.376-7.842a7.689,7.689,0,0,0,4.009-6.753l0-6.549-.418-.505a30.358,30.358,0,0,1-5.456-11.3l-.165-.72-.62-.4a3.013,3.013,0,0,1-1.4-2.531V43.758a2.969,2.969,0,0,1,1.013-2.224l.6-.542V30.865l-.016-.238A10.951,10.951,0,0,1,36.613,22.7c2.629-3,7.135-4.518,13.387-4.518,6.229,0,10.72,1.509,13.356,4.484a11.134,11.134,0,0,1,2.569,7.965L65.909,41l.6.542a2.973,2.973,0,0,1,1.013,2.224v6.445a3.037,3.037,0,0,1-2.147,2.864l-.9.278-.291.9A33.637,33.637,0,0,1,59.642,63.4c-.476.673-.94,1.269-1.338,1.725l-.451.515v6.725A7.644,7.644,0,0,0,62.1,79.24l15.395,7.7c.1.049.195.1.291.151C77.595,87.235,77.395,87.371,77.2,87.513Z" fill="#fff"/>
</svg>
