<svg xmlns="http://www.w3.org/2000/svg" width="20.167" height="19.13" viewBox="0 0 20.167 19.13">
  <g id="ic_blue_belt" transform="translate(-998.545 0)">
    <path id="Path_12514" data-name="Path 12514" d="M-4.225,1.523s2.877-2.748,9.938-2.67,9.37,2.185,9.37,2.185a1.167,1.167,0,0,1-.135,1.655,11.685,11.685,0,0,1-3.355,1.471A34.89,34.89,0,0,0,5.5,3.672,32.078,32.078,0,0,0-.4,4.436,11.27,11.27,0,0,1-3.941,3.27,1.287,1.287,0,0,1-4.225,1.523Z" transform="translate(1003 1.148)" fill="#d52222"/>
    <path id="Path_12515" data-name="Path 12515" d="M0,0A8.669,8.669,0,0,0,2.289,1.325a14.329,14.329,0,0,0,3,.684,10.442,10.442,0,0,0-1.609,1.74A8.8,8.8,0,0,0,2.658,5.857S.484,5.576.251,4.127A36.754,36.754,0,0,1,0,0Z" transform="translate(998.607 4.378)" fill="#d52222"/>
    <path id="Path_12516" data-name="Path 12516" d="M6.069-3.659A7.2,7.2,0,0,1,3.456-2.085C1.906-1.583,0-1.153,0-1.153A13.852,13.852,0,0,1,1.379.619a14.226,14.226,0,0,1,1.1,2.274S5.99,2.282,6.262.833A19.053,19.053,0,0,0,6.069-3.659Z" transform="translate(1012.365 7.403)" fill="#d52222"/>
    <path id="Path_12517" data-name="Path 12517" d="M-7.4-1.5a3.32,3.32,0,0,1,2.75.376c1.346.881-.933,5.33-.933,5.33l-3.052.166A5.815,5.815,0,0,0-7.192,1.786,8.161,8.161,0,0,0-7.4-1.5Z" transform="translate(1015.869 7.024)" fill="#d52222"/>
    <path id="Path_12518" data-name="Path 12518" d="M-.3-6.1s2.16.346,3.123-.72,1.7,2.706.915,4.085-1.185,1.5-1.185,1.5a7.994,7.994,0,0,0-.825-2.9A5.877,5.877,0,0,0-.3-6.1Z" transform="translate(1004.452 12.204)" fill="#d52222"/>
    <path id="Path_12519" data-name="Path 12519" d="M-10.936-13.717l2.2,2.178-.085.773a5.815,5.815,0,0,0-2.119,3.043,25.67,25.67,0,0,0-.885,5.794s-4.973-1.208-4.274-2.234S-13.088-13.032-10.936-13.717Z" transform="translate(1015.156 20.449)" fill="#d52222"/>
    <path id="Path_12520" data-name="Path 12520" d="M-9.6-22.165a7.059,7.059,0,0,0,.475-1.61,12.333,12.333,0,0,0,.119-1.984,21.97,21.97,0,0,1,2.58,3.97A19.853,19.853,0,0,1-5-17.424a4.881,4.881,0,0,1-1.3,2.872A9.433,9.433,0,0,1-9.892-12.81a17.309,17.309,0,0,0,.885-4.614A18.3,18.3,0,0,0-9.6-22.165Z" transform="translate(1020.907 31.94)" fill="#d52222"/>
  </g>
</svg>
