<svg xmlns="http://www.w3.org/2000/svg" width="11.767" height="12.748" viewBox="0 0 11.767 12.748">
  <path id="ic_logout" d="M139.767,6.864a5.724,5.724,0,0,1-.467,2.283,5.813,5.813,0,0,1-3.133,3.133,5.81,5.81,0,0,1-4.566,0,5.813,5.813,0,0,1-3.133-3.133A5.724,5.724,0,0,1,128,6.864a5.827,5.827,0,0,1,2.352-4.7.969.969,0,0,1,.732-.192.905.905,0,0,1,.64.383.932.932,0,0,1,.188.724.954.954,0,0,1-.379.647,3.912,3.912,0,0,0-1.161,1.387,3.906,3.906,0,0,0-.1,3.267,3.885,3.885,0,0,0,2.091,2.091,3.882,3.882,0,0,0,3.041,0A3.885,3.885,0,0,0,137.5,8.385a3.906,3.906,0,0,0-.1-3.267,3.912,3.912,0,0,0-1.161-1.387.954.954,0,0,1-.379-.647.932.932,0,0,1,.188-.724.908.908,0,0,1,.644-.383.951.951,0,0,1,.728.192,5.827,5.827,0,0,1,2.352,4.7Zm-4.9-5.884v4.9a.981.981,0,0,1-1.961,0V.981a.942.942,0,0,1,.291-.689.962.962,0,0,1,1.379,0A.942.942,0,0,1,134.864.981Z" transform="translate(-128)" fill="#fff"/>
</svg>
