<svg xmlns="http://www.w3.org/2000/svg" width="17" height="17" viewBox="0 0 17 17">
  <path id="ic_search" d="M17.726,15.484l-4.191-4.208A6.7,6.7,0,0,0,15.2,6.864,7,7,0,0,0,8.093,0,7,7,0,0,0,.984,6.864a7,7,0,0,0,7.109,6.864,7.208,7.208,0,0,0,4.073-1.242l4.223,4.24a.951.951,0,0,0,1.311.025A.875.875,0,0,0,17.726,15.484ZM8.093,1.791a5.172,5.172,0,0,1,5.255,5.073,5.172,5.172,0,0,1-5.255,5.073A5.172,5.172,0,0,1,2.839,6.864,5.172,5.172,0,0,1,8.093,1.791Z" transform="translate(-0.984)" fill="#299dd6"/>
</svg>
