<svg xmlns="http://www.w3.org/2000/svg" width="20" height="16" viewBox="0 0 20 16">
  <path id="Left_Arrow" data-name="Left Arrow" d="M20.571,12.4H6.857l3.3-3.7a1.612,1.612,0,0,0,.414-1.1A1.543,1.543,0,0,0,9.143,6a1.28,1.28,0,0,0-.986.464L2.473,12.83A1.613,1.613,0,0,0,2,14a1.527,1.527,0,0,0,.461,1.158l5.7,6.378A1.28,1.28,0,0,0,9.143,22a1.542,1.542,0,0,0,1.429-1.6,1.612,1.612,0,0,0-.414-1.1l-3.3-3.7H20.571A1.522,1.522,0,0,0,22,14,1.522,1.522,0,0,0,20.571,12.4Z" transform="translate(-2 -6)" fill="#1c9ad5"/>
</svg>
